<svg xmlns="http://www.w3.org/2000/svg" xmlns:xlink="http://www.w3.org/1999/xlink" viewBox="0 0 210 210"><defs><style>.cls-1{fill:url(#Dégradé_sans_nom_3);}.cls-2,.cls-3{fill:#fff;}.cls-2{fill-rule:evenodd;}</style><linearGradient id="Dégradé_sans_nom_3" x1="13.35" y1="-4.62" x2="197.07" y2="215.12" gradientUnits="userSpaceOnUse"><stop offset="0" stop-color="#0699d6"/><stop offset="1" stop-color="#0278b6"/></linearGradient></defs><g id="Calque_2" data-name="Calque 2"><g id="Calque_1-2" data-name="Calque 1"><rect class="cls-1" width="210" height="210" rx="36"/><path class="cls-2" d="M40.5,55.58A15.25,15.25,0,1,1,55.75,70.83,15.24,15.24,0,0,1,40.5,55.58Z"/><rect class="cls-3" x="42.45" y="83.66" width="26.58" height="86"/><path class="cls-2" d="M166.24,100.67C164.42,96.74,162.45,93,159,90.2a33,33,0,0,0-24.6-8.07c-9.77.41-20.58,6-26.08,14V83.66H83.89v86h25.93V123.51c0-.49.12-8.29,5.86-13.46,7.13-6.42,27.82-6.78,27.82,12.83l-.06,46.78H169.5V114.15A33,33,0,0,0,166.24,100.67Z"/></g></g></svg>